<svg xmlns="http://www.w3.org/2000/svg" xmlns:xlink="http://www.w3.org/1999/xlink" width="2000" zoomAndPan="magnify" viewBox="0 0 1500 1499.999933" height="2000" preserveAspectRatio="xMidYMid meet" version="1.0"><defs><clipPath id="9fbf17321c"><path d="M 145 419 L 836 419 L 836 1398.691406 L 145 1398.691406 Z M 145 419 " clip-rule="nonzero"/></clipPath><clipPath id="e346b1ebee"><path d="M 878 101.191406 L 1166 101.191406 L 1166 389 L 878 389 Z M 878 101.191406 " clip-rule="nonzero"/></clipPath></defs><path fill="#24ebd3" d="M 219.753906 567.644531 C 228.03125 515.6875 249.144531 486.511719 269.765625 470.152344 C 281.769531 460.625 298.003906 474.015625 291.105469 487.714844 C 256.257812 556.917969 276.324219 648.148438 313.914062 733.929688 C 271.9375 681.339844 236.179688 624.027344 219.753906 567.644531 " fill-opacity="1" fill-rule="nonzero"/><g clip-path="url(#9fbf17321c)"><path fill="#24ebd3" d="M 741.285156 954.898438 C 689.164062 907.265625 541.644531 784.421875 539.546875 710.363281 C 537.4375 636.320312 410.539062 724.871094 540.921875 894.171875 C 540.921875 894.171875 139.441406 725.097656 209.910156 435.300781 C 213.953125 418.671875 186.257812 413.808594 179.625 429.578125 C 150.902344 497.835938 57.046875 680.507812 390.699219 986.085938 C 620.554688 1196.59375 727.878906 1215.988281 750.9375 1398.179688 C 750.9375 1398.179688 948.027344 1143.828125 741.285156 954.898438 " fill-opacity="1" fill-rule="nonzero"/></g><path fill="#24ebd3" d="M 284.574219 568.847656 C 284.15625 619.339844 300.609375 675.25 324.515625 729.546875 C 309.71875 663.867188 309.769531 600.121094 339.234375 550.652344 C 347.082031 537.472656 331.84375 522.96875 319.183594 531.621094 C 307.394531 539.683594 295.1875 551.523438 284.574219 568.847656 " fill-opacity="1" fill-rule="nonzero"/><path fill="#ff66c4" d="M 1239.351562 400.808594 C 1116.117188 321.492188 935.316406 333.082031 727.410156 432.824219 C 576.101562 348.671875 385.066406 353.472656 385.066406 353.472656 C 668.78125 444.410156 728.359375 603.65625 728.359375 603.65625 C 878.609375 496.734375 1076.417969 478.917969 1156.730469 529.171875 C 1372.140625 663.929688 1109.308594 1158.902344 843.46875 1350.859375 C 1216.519531 1138.988281 1361.816406 870.875 1371.597656 682.996094 C 1377.902344 561.808594 1329.710938 458.957031 1239.351562 400.808594 " fill-opacity="1" fill-rule="nonzero"/><g clip-path="url(#e346b1ebee)"><path fill="#ff66c4" d="M 1165.789062 245.085938 C 1165.789062 324.386719 1101.5 388.675781 1022.199219 388.675781 C 942.898438 388.675781 878.609375 324.386719 878.609375 245.085938 C 878.609375 165.785156 942.898438 101.496094 1022.199219 101.496094 C 1101.5 101.496094 1165.789062 165.785156 1165.789062 245.085938 " fill-opacity="1" fill-rule="nonzero"/></g><path fill="#ff66c4" d="M 1137.558594 724.171875 C 1114.78125 607.011719 972.007812 605.050781 936.804688 714.578125 C 901.597656 605.054688 758.824219 607.011719 736.046875 724.171875 C 715.382812 830.46875 936.804688 998.171875 936.804688 998.171875 C 936.804688 998.171875 1158.222656 830.46875 1137.558594 724.171875 Z M 1137.558594 724.171875 " fill-opacity="1" fill-rule="nonzero"/></svg>